<svg id="Шар_1" data-name="Шар 1" xmlns="http://www.w3.org/2000/svg" viewBox="0 0 445.4 433.8"><defs><style>.cls-1{fill:none}.cls-2{fill:#808793}.cls-3{fill:#4c5b72}</style></defs><path class="cls-1" d="M453 235a7 7 0 002 2 6 6 0 000-2zM461 235zM498 470l1 1v-1zM459 213a4 4 0 000-2h-1a2 2 0 001 2zM463 223v-1h-1a1 1 0 000 1zM500 470a3 3 0 000 1v-1zM500 177h-1v1l1 2zM471 212v1h1l-1-1zM418 259a1 1 0 000 1l1-1h-1zM465 198a1 1 0 00-1 0l1 1v-1c0-1 0 0 0 0zM465 221v1a1 1 0 000 1 1 1 0 000-1v-1zM436 279v1h1l-1-1zM470 186a1 1 0 000-1zM509 471a1 1 0 000-1 1 1 0 000 1zM460 406a3 3 0 00-1 0h1zM450 405v1h1a5 5 0 010-1h-1zM452 221a5 5 0 000 2h1l-1-2zM514 383a8 8 0 00-2 0v1a3 3 0 002-1zM451 210a18 18 0 010 3h1l-1-3zM432 199a1 1 0 001-1h-1v1zM501 470v1l1-1zM437 201a44 44 0 00-7 0 1 1 0 000 1h7v-1zM441 198a11 11 0 00-3 0h-4l1 1h6a1 1 0 001-1h-1zM513 228a1 1 0 00-1 0v4a1 1 0 001 0l-1 1v2a1 1 0 001 1 6 6 0 000-3v-1-3a1 1 0 000-1zM512 361h1v-1a1 1 0 00-1 0v1zM454 255a1 1 0 00-1 1h1v-1zM513 331v0zM512 285v3l1-3a1 1 0 00-1 0zM512 356a4 4 0 000 1v1a2 2 0 001 0l-1-2zM513 465a2 2 0 001 3 4 4 0 00-1-3zM470 254a4 4 0 010-2h-1l1 2zM460 251v-1h-27l-1 1h5a10 10 0 013 0 9 9 0 004 0c1 0 2 0 2 2l2-2a11 11 0 004 0l1 1v1l1-1 1-1 4 1a13 13 0 015-1zM461 263a2 2 0 000 1v-1zM454 260h-1l1 1v-1zM459 253zM438 266v-1-1l-1 1 1 1zM513 362h-1v3a9 9 0 000 2l1-5zM512 291a1 1 0 000-1zM513 369h-1 1zM439 278l-1-1 1-4-1-1v2a4 4 0 000 4h1c0-1 0 0 0 0zM513 266h1l-1-1v1zM438 262a1 1 0 00-1-1 1 1 0 000 1 2 2 0 001 1v-1zM512 227l1-1v-5a1 1 0 000-1 1 1 0 00-1-1v8zM441 254v-1 1zM512 297v0zM512 295v-1 1zM440 256h1v-1l-1 1zM523 256a5 5 0 00-1-2v-1 4l1-1zM523 268v1h1l-1-1zM523 295h-1l1 1v-1zM521 322a1 1 0 000 1 1 1 0 001 0l-1-1zM524 238v2a6 6 0 000-1v-1zM522 349h-1l1 1a1 1 0 000-1zM525 378a1 1 0 000 1h1a1 1 0 00-1-1zM523 265v1h1l-1-1zM522 354h-1 1zM519 266v0zM515 383h4a5 5 0 00-4 0zM521 386h-1 1zM521 277l-1-1 1 1c1 0 0 0 0 0zM551 227v-7a18 18 0 000 7zM519 388l-1 1a1 1 0 000 1l1-1v-1zM555 216a41 41 0 000 7h1v-8l-1 1zM557 207v-3a12 12 0 00-1 5 4 4 0 001-2zM557 219l-1-1 1 1zM531 266h-1a16 16 0 000 3l1 1v-4zM533 251h0zM535 268l-1 2 1-2zM548 210l1 6a15 15 0 000-5l-1-1zM546 206a7 7 0 010 4 1 1 0 000 1l1-1a7 7 0 000-1 7 7 0 000-3h-1zM549 201v5zM515 438v-1a1 1 0 00-1 1l1 1v-1zM518 293a1 1 0 001-1h-1v1zM519 290h-1v1l1-1zM517 403v1a7 7 0 000 1 8 8 0 001-1l-1-1zM518 364v0zM521 272h1l-1-1a1 1 0 000 1zM519 298l-1-2v2h1zM518 359v-1h-1l1 1zM529 447a3 3 0 001 2l-1-2zM523 464v0zM521 471v-3 3zM526 349h-1 1zM521 464a3 3 0 000 2 4 4 0 000-2zM519 261v-1 1zM516 423h1v-4-1l-1 2a5 5 0 010 3zM516 450l1-5a17 17 0 00-1 5zM517 416h-1v1l1-1zM517 438v1l1-1h-1zM517 453a3 3 0 000-2v2zM516 183v-1a6 6 0 010-2h-1-1l1 3a1 1 0 001 0zM513 470l1 1v-1h-1zM515 175v-1a1 1 0 00-1 0 1 1 0 001 1zM515 464h-1 1c1 0 0 0 0 0z" transform="translate(-289 -167)"/><path class="cls-2" d="M454 259l-1-1v1h1zM489 185v-1 1zM484 259zM476 259h1-1v-1 1c0 1 0 0 0 0zM485 252a1 1 0 010-1c1 0 0 0 0 0a1 1 0 00-1 0v1a3 3 0 010 1h1a3 3 0 010-1zM490 252v-1a1 1 0 00-1 1h1zM480 250l-1 1 1 1v-1-1zM454 256h-1 1zM472 250l-1 1h2l-1-1zM467 250h-7v1h9a1 1 0 010 1h1v-1l-1-1h-2zM492 261h-1 1zM459 183l1-1a5 5 0 002 0 3 3 0 002 0l-1-2 1-1h-1v1l-2 1h-1l-1-1v-1l-1 1-1-1v2l-1-1 1 1h-2l2 1v1l-1 1 1-1v1h-1v1h-5v-1h-2v1-1h-1l-1 1h-3l3 2h1l1-1v1h2v-1h3l4 1a16 16 0 001-4zM489 260v1h1l-1-1zM476 264h1v-1l-1 1zM475 251h-1 1c1 0 0 0 0 0zM489 264h1l-1-1v1zM477 251h1l-1-1a1 1 0 000 1zM469 263v-1l-1 1a1 1 0 010 1h1v-1zM452 214v-1h-1l1 1zM436 356v-4h4v-2h-13v1h-7v1h-3v1h-2v1h-1v1h-1v1h-8a2 2 0 00-2 1h-4v1h4a2 2 0 001 1h10v2h1v1h2v1h3v1h19v-8zM470 185v-2-1l-1 1 1 2zM452 221l1-1-1-3a4 4 0 000-1l-1-1v1a23 23 0 010 3 7 7 0 000 1 1 1 0 001 1z" transform="translate(-289 -167)"/><path class="cls-2" d="M204 215v-2h-8v-7h-4v-2h-4v-5h-30v6h23l-3 3h-18v1h-2v5h-10v4h22v3h-19v5h20v-11h33z"/><path class="cls-2" d="M487 177a5 5 0 000-3l-1 3v1c1 1 1 0 1-1z" transform="translate(-289 -167)"/><path class="cls-2" d="M165 128v3h4v1h7v-4h-11z"/><path class="cls-2" d="M489 178v0zM450 405h1v-4a5 5 0 001-3h-1a10 10 0 00-1 2 16 16 0 000 5zM463 223h-1 1zM464 247h1c1 2 2 1 3 1h9v-1h-4v-2h3v-5l-5 1c0-1-1-2-2-1h-1c-1-1-1-1-1 1a1 1 0 01-1 0l-1-1h-3v-1l-1 1h-9-1-1a3 3 0 010-2h-48v3h-1v-3h-2v3l-23 1 23 1v3l1 1h1v-5h1v5h57l-1 1h3l3-1zM445 233a7 7 0 00-1-2h-1v-4a11 11 0 00-2-4h-12l-5 5 5 7h18a7 7 0 01-2-2zM464 233h-1v2l1-2zM471 214l1-1h-1v1zM469 221v1l1 1a1 1 0 001-1 2 2 0 00-2-1zM457 401l2 2h1a31 31 0 004 0 4 4 0 002 0v-6h-3v1h-6a5 5 0 010 1 3 3 0 000 2zM450 408l1-2h-1a4 4 0 000 2zM466 236a2 2 0 000-2 2 2 0 000 2zM455 398zM462 234l-1-1v3a2 2 0 000 1 1 1 0 001-1 5 5 0 010-2zM454 233h-1a3 3 0 000 2h2l-1-2zM464 231a11 11 0 000-3h-1l-1 1a6 6 0 001 0v3l1-1zM464 237h1l-1-1v1zM436 216h1l1-2a10 10 0 000-1h-13v8h15a8 8 0 00-1-1c0-2-2-2-3-4zM465 223zM453 225a5 5 0 010-2h-1v3a1 1 0 001-1zM478 225a11 11 0 000-3l-1-1-1 1 1 4 1 1v-2zM477 465v-6h-4v7h8v-1zM487 193v0zM489 190v1-1zM487 191v1l1-1h-1zM482 213l-1-4v-1 5l1 1v-1zM478 232v-3a1 1 0 00-1 0l1 3zM481 207l1-1-1-1v2zM492 465v1h1v-1zM454 231a8 8 0 000-1 3 3 0 000-1 1 1 0 00-1-1 1 1 0 000 1 2 2 0 010 2 1 1 0 000 1l1-1zM458 210a5 5 0 000 1h1v-4l-1 3zM489 178v0zM489 182v-1 1zM486 181h0zM487 433a11 11 0 000-1l1-1h-4v-6h-3v-10h3v-4h3v-4l-18-1h-8a3 3 0 00-1 0h-1a9 9 0 00-2 2v2l-6 1a11 11 0 00-2 0v1h9v1h4v1l1 1h1v1h9v1h-27v1h-3l-2 1h-6l-2 1h-4v1h-5v1h-3l-1 1h-10 12l2 1h1l1 1h5v1h4v1h8v1h29v2h-16v12h1v-9zM485 457a2 2 0 00-1 0h-3v-5h-15v5h11z" transform="translate(-289 -167)"/><path class="cls-3" d="M502 272l1-1-1-1v2zM503 288v-1 1zM494 469v1h1l-1-1zM503 259a1 1 0 000-1l-1 1h1zM501 321v-1a3 3 0 010-2l1-1h-2l1 4zM441 276v-2l-1-1v5l1 1v-1a1 1 0 010-2zM444 276a2 2 0 00-1-2s0-1 0 0a1 1 0 00-1 0 3 3 0 011 3 3 3 0 001 3v-2a3 3 0 010-2zM502 275v-2 2zM502 268h-1 1zM502 257a1 1 0 001-1 1 1 0 00-1 1zM498 303l1 1a1 1 0 001 0 1 1 0 000-1v-1-2a64 64 0 01-1-7v-1a1 1 0 000-1l-1-1v2h1l-1 2v9zM497 224v-2 2zM495 190l-1 1v1l1-2zM497 182zM502 469a1 1 0 00-1 1h1v-1zM500 199l-1 1h1v-1zM501 235v0zM500 467v-2a2 2 0 000 2zM500 469a1 1 0 000 1v-1zM501 191l-1-2a2 2 0 000 2 1 1 0 001 0zM499 463v-1l-1 1h1zM499 469l-1 1h1v-1zM498 464l1 3-1-3zM499 437a2 2 0 000 2 2 2 0 000-2zM495 427a1 1 0 00-1 1v1l1-1v-1zM496 422l-1-1v1c0 1 0 0 0 0h1zM496 463l-1 1a18 18 0 001 2 6 6 0 010-2v-1zM502 182l-1-9-1-1-1 1v4h1v7l2-1a5 5 0 010-1zM512 285l-1 3h1v-3zM511 188h1l-1-1v1zM512 362v3-3zM512 297v1zM512 226v1-8l-1 1v1l1 5zM512 228a13 13 0 000 3 1 1 0 000 1v-4zM512 290h-1l1 1v-1zM507 225l-1 1 1 1v-1-1zM505 226v-4c-2 2 0 3 0 4zM502 199v2l1-1-1-1zM507 184v1l1 1v-1l-1-1zM512 361v-1a1 1 0 000 1zM512 358v-1a1 1 0 000 1zM461 264zM512 295v-1h-1v1a1 1 0 001 0zM502 342h-1c-1 0 0 0 0 0v1l1-1zM501 329l-1 1h1c1 0 0 0 0 0v-1zM500 355v-1 1zM500 342a16 16 0 01-1-3l-1 1v2a1 1 0 001 1 1 1 0 001-1zM499 310l-1-2a2 2 0 000 2 1 1 0 001 0zM504 291l-1 1a11 11 0 000 3v2h1l-1-2 1-3v-1zM502 347a7 7 0 00-1 3l1-3zM507 285l1 2a7 7 0 000-2h-1zM502 354v1a1 1 0 001 0l-1-1zM495 350a4 4 0 000-3l-1 3v1h1v-1zM461 269h1a2 2 0 00-1-3 5 5 0 000 3zM497 259v-1 1zM461 265v-1 1zM446 277v1c0 1 0 0 0 0v-1c0-1 0 0 0 0zM495 345a14 14 0 000-1v-1a1 1 0 00-1 1 2 2 0 000 1 1 1 0 001 2v-2zM458 280v1a1 1 0 001 0 1 1 0 000-1h-1zM508 338h0zM505 408v1l1-1h-1zM506 392v1h1l-1-1zM509 464v-1 1zM505 410v0zM505 436l-1 3a4 4 0 000 4 4 4 0 000-4c2-1 1-2 1-3zM501 446v0zM501 443v1l1-1a3 3 0 000-1v-5l-1 6zM507 299h0zM507 269l1-1a4 4 0 00-1 0v1zM507 266v-1l-1 1h1c1 0 0 0 0 0zM508 281zM508 294h-1v1c0 1 0 0 0 0l1-1zM509 465v1a1 1 0 000-1zM500 462v0zM508 334a4 4 0 010-2v-1l-1 1a9 9 0 000 1 2 2 0 001 1zM468 270l1 2v-1l-1-1zM490 253v-1a1 1 0 010 1zM484 259v-1a1 1 0 000 1zM489 257l1-1h-1v1zM476 257l1-1h-1v1zM479 255v1a1 1 0 001 0l-1-1zM477 259v-1h-1v1zM490 274h1l-1-2-1 1 1 1zM492 301v-6h-1v7a1 1 0 001-1zM490 276v-1l-1 1a1 1 0 001 0zM485 254v-2h-1l1 2zM459 269l-1-1v1h1zM489 265v3l1-1 1-2h-2zM471 272h0zM494 333a7 7 0 000-2h-1a1 1 0 000 1v1l1 1v-1zM484 270v-5h-1l1 5zM494 338l1-1a2 2 0 010-1l-1-1-1 1a1 1 0 010 1l1 1zM484 273a14 14 0 001-3h-1s-1 0 0 0a2 2 0 010 2v1zM492 304h-1l1 1v-1zM494 330v-1a13 13 0 000-2l-1-1-1 2v1a1 1 0 002 1zM494 325v-1-5-1l1-1h-1l-1 1a59 59 0 01-1 7h2zM469 269v-1a4 4 0 000-3 1 1 0 010-1h-1a7 7 0 010 1 1 1 0 000 1v2l1 1zM489 260zM460 271l1 3 1-2a2 2 0 01-1-1v-1l-1 1zM476 264a1 1 0 001 0h-1zM489 336l-1 1a1 1 0 001 1l1-1a1 1 0 00-1-1zM489 288v-1l-1 1-1 2 1 1v1a1 1 0 001-1 4 4 0 010-2 3 3 0 000-1zM487 336l-1 1v1a1 1 0 001-1v-1zM481 323l1-1-1-1v2zM482 335l-1 1 1 2 1-2-1-1zM489 329l-1-1v1h1zM481 325v-1l-1 1h1zM489 334a1 1 0 000-2v-1l-1 1 1 2zM488 309l-1-1v1l1 1v-1zM487 303v2a2 2 0 000 1v0c0-1 0 0 0 0a2 2 0 000-1 2 2 0 000-2zM488 293a1 1 0 000 2v-2zM476 274l1-4v-4l-1 1v3a1 1 0 000 1v3zM461 275h-1l1 2v1l1-1-1-2zM467 275l-1-1v1a8 8 0 00-1 1 5 5 0 001 2 1 1 0 001 0v-3zM493 248h1l-1-1v1c0 1 0 0 0 0zM490 264h-1a3 3 0 001 0z" transform="translate(-289 -167)"/><path class="cls-3" d="M492 286v-1l1 2a2 2 0 000 2v0a13 13 0 000-3l-1-2a7 7 0 00-1 0l-4 1h-6v1a8 8 0 010 4v1l1 5v1 1h2v-1l1-4 1-1v-1a2 2 0 00-1-2l2-2a4 4 0 011-2h3c0 1 0 2 1 1zM476 278v3l1 1v-1-5l-1 2zM490 279l1-1h-1v1zM479 278v0zM479 275v2a1 1 0 000 1 4 4 0 000-1v-2zM480 326v1h1l-1-1zM479 268a1 1 0 00-1 0v1l1 1v-2zM484 257a1 1 0 001-1h-1c-1 0 0 0 0 0v1zM484 411v4h-3v10h3v6h4l1-1v-2a25 25 0 001-6v-2l8 1h5a1 1 0 001-1h-1l-1-1a9 9 0 00-1-1 1 1 0 000-2 40 40 0 011-8l-1-1h-3l-1 1-1 1v-1-1l-2-1a1 1 0 010 1l-4-1-2 1a1 1 0 01-1 0v4zM473 245v2h4v1h1l2-1 1-1h18a3 3 0 002 0 3 3 0 012-1h5c1 0 2 0 2-2v-2-3l-34 2v5z" transform="translate(-289 -167)"/><path class="cls-3" d="M466 403h15a105 105 0 0012 0c1 0 2 0 2 2-1 0 0 0 0 0a1 1 0 001 0 6 6 0 010-3l1-1v2a20 20 0 004 1l1-1a4 4 0 010-3 2 2 0 00-1-2 31 31 0 01-3-4 10 10 0 01-2-7 5 5 0 000-3h-1-1v3a7 7 0 010-3l1-2a12 12 0 011 0l1 1a6 6 0 013 0l3 1 8-1 1 1v-1h-1l-4-1-1-1c0-2 0-2-2-2a6 6 0 01-2-1v-4-1h2l1-2v-1a22 22 0 000-4l1-4v-3-3h-11c-1-1 0-1 1-1v-1l-1-2h-1l1 3-2 1a265 265 0 01-5-1h-3a24 24 0 00-6 0h-11a2 2 0 00-1 0h-1a2 2 0 00-2 0 13 13 0 00-3 0 16 16 0 00-5 0 6 6 0 00-2 0 15 15 0 00-4 0l-1-1v-4l-1-1v-1a7 7 0 010-1v-6l1-2v-2c1-1 0-1-1-2a3 3 0 00-1-1h-1l1-1v-1c1-1 0 0 0 0a1 1 0 010 1l1 1a2 2 0 002-1h4l2-1v1h3l1 2v5l1 1 1-1a7 7 0 000-2l-1-7v-2-2a1 1 0 00-2-1 1 1 0 01-1 0l1-1v-1-1h-1v-1-2a1 1 0 00-1 0h-1v-1-2-4-3h18v-1l1-5a5 5 0 00-2 0c-2 0-2 0-2-2v-1h4l1-1a5 5 0 010-2h2l1-7 1-6-1-1h-5a6 6 0 00-4 0h-22a14 14 0 00-7 0h-1a12 12 0 00-5 0 5 5 0 01-3-1h-6v6h-2v4h3v2h37v4h-14v2h-11l-1 1h-18v2h-9v7h7v2h4v1h20v3h-9v17h12v4h-3v3h4v6h-6v5h-4v4h3v10h38v5h4v2h3v7h9v2h-33v15h6zM493 443v1c0 1 0 0 0 0v-1zM482 218c0-1 1-2-1-3l1 5a5 5 0 000-2zM487 443a1 1 0 00-1 1 3 3 0 001 2l1-2-1-1zM482 222v1h1a1 1 0 00-1-1zM494 434a4 4 0 000-4 5 5 0 000 4zM493 462l-1 1v2h1a10 10 0 000-3zM489 190v1a1 1 0 001-1h-1z" transform="translate(-289 -167)"/><path class="cls-3" d="M467 344v1h1a1 1 0 00-1-1zM481 465v-5h2v3a6 6 0 003 1v-3a11 11 0 010-2c1-2 0-2-1-2h-8v8zM481 451c1-1 1-1-1-1v-1-3a6 6 0 00-3-1 12 12 0 01-3 0 27 27 0 012 0h4v-1l1-2v-1l2-1 1-3v2h1v-3h2a8 8 0 000-3h-30v19h24a4 4 0 010-1zM489 184v1a1 1 0 000-1zM469 322s-1 0 0 0a1 1 0 001 1v-1h-1zM493 299l1 1v-1a6 6 0 000-3 16 16 0 01-1 2 1 1 0 000 1zM478 233v1a7 7 0 000 3 1 1 0 001 0v-1-2l-1-1zM489 271l1-2v-1l-1 1v2zM495 342a5 5 0 000-3 1 1 0 00-2 0 1 1 0 000 2 1 1 0 001 2l1-1z" transform="translate(-289 -167)"/><path d="M579 313l7-6c4-4 4-7 1-11a91 91 0 01-9-9c-6-9-10-18-9-29 1-13 1-26-5-38a5 5 0 010-3c3-15-3-26-14-34a6 6 0 010 2 5 5 0 01-1-3 82 82 0 00-61-14v3-3a109 109 0 00-15 4 59 59 0 00-9 3 13 13 0 000 4v3a3 3 0 01-2 0 5 5 0 01-2 0h-1v1a16 16 0 01-1 4 6 6 0 000 2 2 2 0 010 1 2 2 0 011 1 4 4 0 010 2l-1 2h-8a14 14 0 00-3 0l-2-1h-1s0 2-1 1a1 1 0 00-1 0h-2a1 1 0 00-1-1c-1 1-1 0-1-1h-1c-1 2-1 2-2 0-1 2-2 2-2 0a67 67 0 00-8 0l2 6v1h-5l6 1h1l2 1 6 1h1l-1 2a19 19 0 01-4-1h-1l1 1h2c2 0 3 0 2 3l1 2v3a10 10 0 010 1l-1 2h-1c1 2 3 2 3 4a8 8 0 011 0 13 13 0 001 2 11 11 0 012 5v4h1a7 7 0 011 2 7 7 0 002 2 4 4 0 001 1l2 1v1a3 3 0 000 1l1 1h10l1-1v1h1l2-1 1 2a1 1 0 001 0c0-2 0-2 1-1h8l34-2v5l-2 2h-5a3 3 0 00-2 0 3 3 0 01-2 1 1066 1066 0 01-21 2h-1l-9-1h-3-1l-3 1h-3l-31-1-1 1c-1 2-2 1-3 1l-2 1a1 1 0 01-1 1h-8l-1 1v2l2 1v1c2 0 2 1 2 2v3l2 1h2a1 1 0 001-1v-1l1 1v1a1 1 0 011 1v1h3a2 2 0 01-1 3v2h1v3l1 1a1 1 0 010 1v2c0 3 0 3 4 3l1 1a3 3 0 011 3 5 5 0 003 1 12 12 0 015 0h1a14 14 0 017 0h22a6 6 0 014 0h5l1 1-1 6-1 6h-2a5 5 0 000 3l-1 1h-4v1l2 1a5 5 0 012 1l-1 5v1h-18l-1 2 1 4v4h1a1 1 0 011 0v2l1 1v2l-1 1a1 1 0 001 0 1 1 0 012 0v4l1 8a7 7 0 010 2l-1 1-1-1v-6l-1-1-1-1h-4c0 1 0 1 0 0h-4a1 1 0 010 1 2 2 0 01-2 0l-1-1v-1 2l-1 1h1a3 3 0 011 1c1 0 2 1 1 2v2l-1 1v9l1 1v4h1a15 15 0 014 1 6 6 0 012 0 16 16 0 015 0 13 13 0 013 0 2 2 0 012 0h1a2 2 0 011 0h11a24 24 0 016 0h3a265 265 0 005 0h2l-1-3 1-1v1l1 2v1h-1l11 1v2l-1 4v3a22 22 0 010 4v1a3 3 0 010 1l-1 2h-2v1c-1 1 0 0 0 0v4a6 6 0 002 0c2 0 2 0 2 2l1 2h5a8 8 0 012 1 3 3 0 01-2 0h-1l-8 1c-1-2-2-1-3-1a6 6 0 00-3-1h-1a12 12 0 00-1 0l-1 1a7 7 0 000 4v-3l1-1 1 1a5 5 0 010 2 10 10 0 002 8 31 31 0 003 4 2 2 0 011 2 4 4 0 000 2l-1 1a20 20 0 01-4 0v-2h-1a6 6 0 000 3 1 1 0 01-1 1v-1c0-2-1-1-2-1a105 105 0 01-12 0 1 1 0 010-1h-15a4 4 0 01-2 0 31 31 0 01-4 0h-1l-2-2a3 3 0 010-1 5 5 0 000-1 1 1 0 00-1-1l-1 1c-1 0 0 0 0 0l-2-1h-1a7 7 0 000 1 5 5 0 01-1 2v5a5 5 0 000 1l-1 1a4 4 0 010-1v-1-1a16 16 0 010-4 10 10 0 011-2 2 2 0 000-1h-1l-2 1h-1-1l-1 1-2 1h-2a2 2 0 00-1 0l-1 5a4 4 0 011 1v1h3l1-1v-1l-1-3h1l1 1a19 19 0 000 4 1 1 0 001 1l1 1v1l1 1h1a11 11 0 012-1h6v-3a9 9 0 012-1 3 3 0 011-1 3 3 0 011 0l8 1 17 1a3 3 0 001 0 1 1 0 001 0l2-1h3a1 1 0 001 0h1l1 1v1c0-2 0-2 2-2h3l1 2a40 40 0 00-1 8 1 1 0 010 1 9 9 0 011 2h1l1 1a1 1 0 01-1 1l-5-1h-8v1a25 25 0 01-1 6v3l-2 1a11 11 0 010 2 8 8 0 010 3h-2v3h-1v-2l-2 2-1 2-1 2v1l-4 1a27 27 0 00-3 0 12 12 0 004 0 6 6 0 013 1v3c2 0 2 0 1 2a4 4 0 000 1v4h3a2 2 0 011 0l1 2a11 11 0 000 3v3a6 6 0 01-3-1v-3h-2v12h11a49 49 0 000-6v-2-1l1-1a10 10 0 010 2v4a11 11 0 000 4h1a7 7 0 010-3h1v1 2h12v-1 1h22v-1l-1-3 3 4h2v-1-1l1 1v1l26 2-32-34c-6-6-9-13-7-22l13-46c0-3 1-3 4-3h23c9 0 13-4 14-11 1-4 0-8-2-11-1-3-1-5 2-7 4-3 4-7 1-11l3-5-1-5c-5-3-1-5 1-6zM432 198h1a1 1 0 01-1 1v-1zm5 4h-7a1 1 0 010-1 44 44 0 017 0v1zm4-3h-6l-1-1h4a11 11 0 013 0h1a1 1 0 01-1 1zm10 14a18 18 0 000-3l1 3v1l-1-1zm0 7a7 7 0 010-1 23 23 0 000-3v-1l1 1a4 4 0 010 1l1 3-1 1a1 1 0 01-1-1zm1 6v-3a5 5 0 010-2l1 2a5 5 0 000 2 1 1 0 01-1 1zm1 5a2 2 0 000-2 1 1 0 010-1 1 1 0 011 1 3 3 0 010 1 8 8 0 010 1l-1 1a1 1 0 010-1zm2 6a7 7 0 01-2-2 3 3 0 010-2h1c1 0 0 0 0 0l1 2a6 6 0 010 2zm4-24a2 2 0 01-1-2 5 5 0 010-1l1-3v4a4 4 0 010 2zm4 9v1h-1a1 1 0 010-1h1zm-1 15a1 1 0 01-1 0 2 2 0 010-1v-1-2l1 1a5 5 0 000 2 1 1 0 010 1zm1-8a6 6 0 01-1 0l1-1h1a11 11 0 010 3l-1 1v-3zm0 6v-1-1h1l-1 2zm2 2h-1l1-1v1zm0-14a1 1 0 010-1v-1 1a1 1 0 010 1zm0-24l-1-1a1 1 0 011 0h1l-1 1zm1 37a2 2 0 010-2 2 2 0 010 2zm4-54v4-1l-1-2c-1-1 0-1 1-1zm0 41l-1-1v-1a2 2 0 012 1 1 1 0 01-1 1zm2-10l-1 1v-1-1l1 1zm9-7v-1l1 1-1 1v-1zm-4 20l-1-4h2a11 11 0 010 3v2l-1-1zm1 3v3l-1-3a1 1 0 011 0zm1 8a1 1 0 01-1 0 7 7 0 010-3v-1l1 1v3zm2-24v-4-1l1 1v5l-1-1zm1 5a5 5 0 010 2l-1-5c2 1 1 2 1 3zm0 5v-1c0-1 0 0 0 0a1 1 0 011 1h-1zm4-46l1-3a5 5 0 010 3l-1 1v-1zm0 4h0zm1 13v-1 1zm1-3l-1 1v-1h1zm1-9v-1 1zm0-5v1-1zm0 1v1-1zm0 6a1 1 0 010 1v-1zm1 7h-1v-1h1a1 1 0 01-1 1zm5 1l-1-1 1-1-1 2zm2-10s0-1 0 0zm0 42v-2 2zm3-24h-1l1-1v1zm0-11l1 2a1 1 0 01-1 0 2 2 0 010-2zm1 47v-1 1zm0-52l-1-1v-3-2-1l-1-4 1-1 2 1v9a5 5 0 000 1l-2 1zm1 17v-1-1l1 1-1 1zm3 25c0-1-2-2 0-4v4zm2 1l-1-1 1-1v2zm1-41l-1-1v-1l1 1v1zm-90 74a1 1 0 010-1h1l-1 1zm18 20v-1l1 1h-1zm1-18a1 1 0 011 0v2a2 2 0 01-1-2zm1 2v2l-1-1 1-1zm1 14h-1a4 4 0 010-4 1 1 0 010-1v-1l1 1-1 4 1 1zm2 1l-1-1v-2-2-1l1 1v3a1 1 0 000 1v1zm0-23h-1l1-1v1zm0-3v0zm3 27a3 3 0 01-1-3 3 3 0 00-1-3 1 1 0 011 0c0-1 0 0 0 0a2 2 0 011 2 3 3 0 000 2v2zm2-2v-1c0-1 0 0 0 0v1zm7-19v-1l1 1h-1zm1 2l-1-1h1v1zm0-5h-1a1 1 0 011-1v1zm4 13v-1l1 1h-1zm1 12a1 1 0 01-1 0v-1h1a1 1 0 010 1zm0-28zm2 11a2 2 0 010-1v1zm0 1v-1 1zm0 1a2 2 0 011 3h-1a5 5 0 010-3zm0 4v1a2 2 0 001 1l-1 2-1-3 1-1zm0 8v-1-2c0-1 0 0 0 0l1 2-1 1zm6 0a1 1 0 01-1 0 5 5 0 01-1-2 8 8 0 011-1h1v3zm1-10v-2a1 1 0 010-1 7 7 0 000-1 1 1 0 000-1l1-1v2a1 1 0 000 1 4 4 0 010 3v1l-1-1zm1 4l-1-2 1 1v1zm1-21v1a4 4 0 000 2l-1-2a1 1 0 000-1h-5a13 13 0 00-4 1h-1l-4-1-1 1c0 1 0 2-1 1v-1l-1-1a11 11 0 01-4 0l-2 2c0-2-1-2-2-2a9 9 0 01-4 0 10 10 0 00-3 0h-4-1l1-1h36l1 1zm1 21h0zm1-21v-1l1 1h-1zm-5 94v-1a1 1 0 011 1h-1zm3-22a1 1 0 01-1-1h1v1zm24-24v1l-1-1a1 1 0 010-1 16 16 0 001-2 6 6 0 010 3zm-1-52l1 1h-1v-1zm-2 14h0zm-2 7l1 1-1 2v-2l1-1zm1 4v2c0 1 0 0 0 0l-1-1 1-1zm0 3v1c0 1 0 0 0 0a1 1 0 01-1 0l1-1zm0 3h1l-1 1v-1zm0-11l-1 1v-1-2h2l-1 2zm0-6h-1v-1l1 1zm-1-9a1 1 0 011-1v1a1 1 0 010 1 1 1 0 000-1h-1zm0 4h1l-1 1v-1zm0 7l1 1a3 3 0 01-1 0v-1zm-5-11v-1a1 1 0 011-1v1a1 1 0 000 1v2l-1-2zm0 4h1a1 1 0 01-1 1v-1zm0 3a1 1 0 010-1v1h-1 1zm0 6v5l-1-5h1zm-1 7a2 2 0 000-2h2a14 14 0 01-1 3v-1zm-2 49l1 1-1 1v-2zm-4-65l-1 1v-1h1zm-1 2h1v1h-1v-1zm0 5l1 1a1 1 0 01-1 0l1-1zm-2-12h1zm2 19v-3l1-1-1 4h1l-1 4v-3a1 1 0 010-1zm1 11v1l-1-1v-3l1-2v5zm0-30h0zm1 17a1 1 0 011 0v2l-1-1v-1zm1 11v-1 1zm0-2a4 4 0 010 1 1 1 0 010-1v-2 2zm0-21v-1l1 1a1 1 0 01-1 0zm1-4l-1-1 1-1v2zm1 75h-1v-1l1 1zm-1-2l1-1v1h-1zm2 11v2l-1-2 1-1v1h1zm5 1a1 1 0 01-1 1v-1l1-1v1zm1-46a1 1 0 010 1h-1v-2l1-2v-1l1 1a3 3 0 010 1 4 4 0 000 2zm0 4a1 1 0 010-2v2zm-1 10a2 2 0 010 1v0a2 2 0 01-1-1l1-2v1a2 2 0 010 1zm0 4v-1l1 1v1l-1-1zm1 20v-1l1 1h-1zm0 2l1 1a1 1 0 010 2l-1-2 1-1zm1 7a1 1 0 01-1-1l1-1a1 1 0 011 1l-1 1zm1-53h-2-1a4 4 0 000 2l-2 2a2 2 0 011 3v2l-1-2v1l-1 4-1 1h-1v-1-1l-1-5v-1a8 8 0 000-3v-2h6l3-1a7 7 0 012 0l1 2a13 13 0 010 3v0a2 2 0 01-1-2v-1h-1l-1-1zm1 17v-7h1v6a1 1 0 01-1 1zm0 2h1v1l-1-1zm2 14l1-1h1l-1 1v7h-2a59 59 0 001-7zm-1 10l1-2 1 1a13 13 0 010 2v1a1 1 0 01-2-1v-1zm1 5l-1-1a1 1 0 011-2l1 1a7 7 0 010 2v1l-1-1zm0 3l1-1 1 1a2 2 0 000 1l-1 1-1-1a1 1 0 000-1zm0 6a6 6 0 010-1 1 1 0 010-1 1 1 0 011-1 5 5 0 011 3l-1 1a1 1 0 01-1-2zm1 3a2 2 0 010-1 1 1 0 011-1v1a14 14 0 010 1v2a1 1 0 01-1-2zm1 6h-1v-1l1-3a4 4 0 010 3v1zm8-63h-1l1-1v1zm-1-17v-1c1-1 0 1 1 1zm0-12s0-1 0 0a1 1 0 011 0h-1c-1-1 0 0 0 0zm0 14v0zm1-17a1 1 0 01-1 1 1 1 0 011-1zm-1 12h-1 1zm0 49l-1 1a3 3 0 000 2v1c-1 1 0 0 0 0v-4h1zm-5-58v-1 1zm1 35l1-2h-1v-2l1 1a1 1 0 010 1l1 1a64 64 0 000 7v2 1a1 1 0 010 1 1 1 0 01-1 0l-1-1v-5-4zm1 14v2a1 1 0 01-1 0 2 2 0 010-2zm-1 34v-2l1-1c1 0 0 0 0 0a16 16 0 001 3 1 1 0 01-1 1 1 1 0 01-1-1zm2 13v-1 1zm1-25h-1l1-1v1c0 1 0 0 0 0zm0 12h1l-1 1v-1zm1 5v3a7 7 0 010-3zm0 8v-1c0-1 0 0 0 0l1 1a1 1 0 01-1 0zm2-63l-1 3 1 2h-1v-2a11 11 0 010-3l1-1v1zm4-7a7 7 0 010 2l-1-2h1c0 1 0 0 0 0zm0 14h-1 1zm0-18zm-1-13a4 4 0 011 0l-1 1v-1c0-1 0 0 0 0zm-1-2l1-1v1c0 1 0 0 0 0h-1zm1 29v-1h1l-1 1zm1 39a2 2 0 01-1-1 9 9 0 010-1l1-1v1a4 4 0 001 2h-1zm0 4h0zm5-106v1a6 6 0 010 3 1 1 0 01-1-1v-2l1-1a1 1 0 01-1 0 13 13 0 010-3v-1a1 1 0 011 0 1 1 0 010 1v3zm0 126a2 2 0 01-1 0 1 1 0 010-1 4 4 0 011-1v2zm-1 2a1 1 0 011 0v1h-1a1 1 0 010-1zm1-26v-3 3zm-1-46h-1l1-3a1 1 0 011 0l-1 3zm0 3l-1-1h1v1zm-1-104l1 1h-1v-1zm0 33l1-1a1 1 0 011 1 1 1 0 010 1v5l-1 1v-1-5c-2 0-2-1-1-1zm0 74h1v1a1 1 0 01-1 0v-1zm1 3v0zm0 66v-1h1l-1 5a9 9 0 010-2v-3zm1 6h-1 1zm0-103v-1l1 1h-1zm-25 178l-1 2a3 3 0 01-1-2 1 1 0 011-1l1 1zm5 0h-1l1-1v1zm5 20l1 3-1-3zm0-1l1-1v1h-1zm-4-29a5 5 0 010-4 4 4 0 010 4zm1-6l-1 1v-1a1 1 0 011-1v1zm0-6v-1l1 1h-1c-1 0 0 0 0 0zm1 42a6 6 0 000 2 18 18 0 01-1-2l1-1v1zm3 7l-1-1c0-1 0 0 0 0l1-1v2zm0-32a2 2 0 010-2 2 2 0 010 2zm1 31v1a3 3 0 010-1 1 1 0 010-1v1zm0-3a2 2 0 010-2v2zm0-4v-1 1zm1-17v-1 4-3zm0 25v-1a1 1 0 011-1v1l-1 1zm1-29a3 3 0 010 1l-1 1v-1l1-6v5zm2 1a4 4 0 010-4l1-3-1 3a4 4 0 010 4zm1-32v-1c0-1 0 0 0 0v1c0 1 0 0 0 0zm0-2v-1-1l1 1-1 1zm1-16v-1l1 1h-1zm3 78a1 1 0 010-1 1 1 0 010 1zm0-5v1-1-1a1 1 0 010 1zm0-2v-1 1zm4 1a4 4 0 011 3 2 2 0 01-1-3zm1 6l-1-1h1v1zm15-24l1 2a3 3 0 01-1-2zm-7 17l1 8v-8zm-1 0a4 4 0 010 2 3 3 0 010-2zm0 4v3-3zm4-119h0zm-4-78l1 1a1 1 0 01-1 0 1 1 0 010-1zm-2-11v0zm-1 30h1c1 0 0 0 0 0l-1 1v-1zm1 2a1 1 0 01-1 1v-1h1zm-1 4l1 2h-1v-2zm0 62v1l-1-1h1zm0 6v-2 2zm-3-190v1a1 1 0 01-1-1 1 1 0 011 0zm0 6h1a6 6 0 000 2v1a1 1 0 01-1 0l-1-3h1zm-1 258a1 1 0 010-1l1 1v1l-1-1zm1 26h-1 1zm2-46v5h-1a5 5 0 000-3l1-2zm-1-2h1l-1 1v-1zm1 37v-2a3 3 0 010 2zm-1-3a17 17 0 011-5l-1 5zm1-11v-1h1l-1 1zm0-35a8 8 0 010 1 7 7 0 010-1v-1l1 1zm2-15l-1 1a1 1 0 010-1v-1l1 1zm-4-6a5 5 0 014 0h-4zm4-116v-1 1zm1 10a1 1 0 010-1l1 1c0 1 0 0 0 0h-1zm1 110l-1-1h1zm1-32l-1-1h1zm0-5l-1-1h1a1 1 0 010 1zm0-27a1 1 0 01-1 0 1 1 0 010-1l1 1zm0-67v-2-1 1a5 5 0 011 2l-1 1v-1zm1 39v1l-1-1h1zm0-26v-1c0-1 0 0 0 0v1zm0-3v-1l1 1h-1zm1-27a6 6 0 010 1v-1-1 1zm2 140h-1a1 1 0 010-1 1 1 0 011 1zm4-110a16 16 0 010-3h1v4l-1-1zm3-18h0zm1 19l1-2-1 2zm15-69v0zm-2 9s0 1 0 0a1 1 0 01-1-1 7 7 0 000-3h1a7 7 0 010 3 7 7 0 010 1zm2 6l-1-6 1 1a15 15 0 010 5zm2 11a18 18 0 010-7v7zm5-4h-1a41 41 0 010-7v-1l1 8zm1-19v3a4 4 0 01-1 2 12 12 0 011-5zm-1 14l1 1-1-1z" transform="translate(-289 -167)" fill="#152428"/><text transform="matrix(.94 0 0 1 15 364)" font-size="60" font-family="SegoePrint,Segoe Print" letter-spacing=".1em" fill="#4c5b72">М<tspan x="64.9" y="0">оя історія</tspan></text><text transform="matrix(.94 0 0 1 172 411)" font-size="15.5" font-family="Lato-Black,Lato Black" font-weight="800" letter-spacing=".6em" fill="#808793">П<tspan x="19.2" y="0">О</tspan><tspan x="39.1" y="0">Ч</tspan><tspan x="57.7" y="0">А</tspan><tspan x="75.8" y="0">Т</tspan><tspan x="92.3" y="0">ОК</tspan></text></svg>