<svg id="Слой_1" data-name="Слой 1" xmlns="http://www.w3.org/2000/svg" viewBox="0 0 64 64"><defs><style>.cls-1{fill:#fdd504;}.cls-2{fill:#0297db;}.cls-3{fill:#0898da;}.cls-4{fill:#f8d40d;}.cls-5{fill:#e1cb34;}.cls-6{fill:#93d2ea;}.cls-7{fill:#668fa8;}.cls-8{fill:#95b1bf;}.cls-9{fill:#e5ebee;}.cls-10{fill:#fbfcfc;}.cls-11{fill:#0396d9;}.cls-12{fill:#fafbfc;}.cls-13{fill:#f5cf09;}.cls-14{fill:#a3a75f;}.cls-15{fill:#9fb0ab;}.cls-16{fill:#7e9177;}.cls-17{fill:#0091f2;}.cls-18{fill:#9ca88c;}.cls-19{fill:#818826;}.cls-20{fill:#f5d30a;}.cls-21{fill:#b0c0c6;}.cls-22{fill:#0d97ee;}.cls-23{fill:#0d74b2;}.cls-24{fill:#0092e6;}.cls-25{fill:#1b7eb4;}.cls-26{fill:#1e77a6;}.cls-27{fill:#0275b0;}.cls-28{fill:#357395;}.cls-29{fill:#0472af;}.cls-30{fill:#9aaaa6;}.cls-31{fill:#f7f7f7;}.cls-32{fill:#bdcbd2;}.cls-33{fill:#bfcbd0;}.cls-34{fill:#c0ccd1;}.cls-35{fill:#becad0;}.cls-36{fill:#b0c0c8;}.cls-37{fill:#798f9e;}.cls-38{fill:#1a6d9b;}.cls-39{fill:#44667f;}.cls-40{fill:#468db4;}.cls-41{fill:#007ec1;}.cls-42{fill:#009de4;}.cls-43{fill:#d8dfe2;}.cls-44{fill:#95a9b5;}.cls-45{fill:#2e5772;}.cls-46{fill:#fafcfd;}</style></defs><title>logo</title><path class="cls-1" d="M-264.93,516.58c-3.9,1.17-6.84,2.88-5,7.81.87,2.39-1,3.53-4.42,4.61,5.73,1,4.79,4.16,4.49,6.66s-2.86,1.46-4.49,1.71a17.37,17.37,0,0,1-3.46.09c-5.46-.26-10.85-.39-14.47,4.84a2.57,2.57,0,0,1-2.5,1.3l-.63-.16a9.76,9.76,0,0,1-2.76-2.71,3.18,3.18,0,0,1-.21-1.29,13.48,13.48,0,0,1,1-3.8,5.61,5.61,0,0,1,.81-1c1.53-1,1.42-3.08,2.75-4.23,2.07-1.09,2.28,1.32,3.49,1.82,1.27-.55,1.32-1.92,1.95-2.87a6,6,0,0,1,1.3-1.54c1.06-1,2.71-1.1,3.79-2.24-2-2.16-3.36.91-5.05.32-1.87-2.31-.65-4.79-.42-7.22a3.45,3.45,0,0,1,1.42-1.75c2.81-.77,4.84-3.58,8.11-3.15a7.34,7.34,0,0,0,4.85-.16c2.46-.52,4.86-1.46,7.46-1.13a4.38,4.38,0,0,1,2,1.1Z" transform="translate(328.93 -487.58)"/><path class="cls-2" d="M-325.69,503.79c6.32-.28,12.14-2.34,17.74-5.1.09.21.17.41.25.62-.2,3.37-4,4.67-4.5,7.85a10.4,10.4,0,0,0,.12,6.5c.47,2,.93,4.06,1.52,6.06s2.76,3.45,2.25,5.9a7.55,7.55,0,0,1-.78,2.16c-1.41,2.15-3.45,2.11-5.62,1.63a6.69,6.69,0,0,0-5.4-1.25c-.79.07-.17,1.15-.24.49,0-.16,0-.23.14-.27,1.25-.45,2.46-.61,3.51.46-1.45,2.85-4,1.88-6.25,1.79a14.61,14.61,0,0,1-4.9-2l-1.08-1v-2c3-2.28,6.07-4.43,3.74-9.07a2.73,2.73,0,0,1,2-4.17C-326.32,510.17-327.68,507.47-325.69,503.79Z" transform="translate(328.93 -487.58)"/><path class="cls-3" d="M-280.93,487.58c.7,4.05,1.15,8.16,2.18,12.13.69,2.66,3.29,3.37,5.8,3.74-2.46.51-.33,5.87-4.65,4.42a4.3,4.3,0,0,1-1.12-.68c-.66-.6-.36-1.52-.74-2.21-2.1-.56-3.72-1.93-5.5-3-1.76-.63-3.32-1.48-3.9-3.44a5.31,5.31,0,0,0-2.7-3.92c-1.26-.79-2.82-.81-4.07-1.62l-.35-.53c2.62-4.32,7.59-1.59,11-3.63.89-.52,2.28-.15,3-1.23Z" transform="translate(328.93 -487.58)"/><path class="cls-4" d="M-310.93,551.58c-1.38-4.64-3.57-9-4.22-13.89a1.75,1.75,0,0,1,1.89-.57c1.88,1.5,2.67,4.26,5.46,4.73.88.35,1.77.69,2.68,1,2.24,1.27,5.78-1,7.16,2.63-1,.69-.44,2.65-2.53,2.48-3.66-.31-6.49,1.91-9.44,3.64Z" transform="translate(328.93 -487.58)"/><path class="cls-5" d="M-298,545.46c-2.33-2.14-5.62.3-8-1.68,1.85-2.21,4.4-1.36,6.72-1.56a8.21,8.21,0,0,1,4.22,1.25l.18.13Z" transform="translate(328.93 -487.58)"/><path class="cls-6" d="M-325.69,503.79c-.31,3.64-1.86,8.11,5,6.56-.58,1.7-1.6,1.74-2.48,2C-327.48,510.68-328.21,508.2-325.69,503.79Z" transform="translate(328.93 -487.58)"/><path class="cls-7" d="M-298.84,492.62l2.86-.18.37.12a1.52,1.52,0,0,1-.14,1.3c-1.37,1.2-2.67,2.53-4.57,2.92a2.55,2.55,0,0,1-1.81-3.31C-301.15,492.75-299.79,493.47-298.84,492.62Z" transform="translate(328.93 -487.58)"/><path class="cls-8" d="M-307.95,498.69c-.35-2.1,1-3.51,2.05-5a.74.74,0,0,1,1.29,0c.41,2.71-.06,4.81-3.4,4.94Z" transform="translate(328.93 -487.58)"/><path class="cls-9" d="M-304.75,493.59l-1.15.06c2.09-2.1,4.7-.72,7.06-1-.8,1.13-2.05.75-3.12.95C-302.88,495.1-303.81,495.41-304.75,493.59Z" transform="translate(328.93 -487.58)"/><path class="cls-10" d="M-304.75,493.59c.94.85,1.86.54,2.79,0a4.62,4.62,0,0,0,2,3l.54.19c.68.35,1.35.71,2.06,1,.94.38,1.9.66,2.85,1a5.59,5.59,0,0,1,2.82,2.5c.35,1.22.12,2.52.55,3.73s.63,2.55.85,3.84a2.8,2.8,0,0,1-.53,1.92,5.91,5.91,0,0,1-2.41.82c1.31,1.06,2.76.66,3.91,1.29,1.44,1.23,3.77,2.12,1.8,4.67a.89.89,0,0,1-.44.53c-.82,1.71-.86,3.61-1.33,5.41-.58,1-1.05,2.17-2.46,2.29a2.15,2.15,0,0,1-.92-.92c-.5-.79.06-2-.9-2.54-.26-.14-.49.7-.56,1.19-.15.82-.51,2.22-1.12,1.93-3.21-1.48-7.86-.38-9.36-5l-1-1.68c-.28-.36-.41-.89-1-1a4.49,4.49,0,0,0,.15,1c.39,1.56.8,3.1-.11,4.61a1.57,1.57,0,0,1-1.26.49,21.51,21.51,0,0,1-4.1-3.87c.58-2.28-1.33-4.14-1.08-6.36-.61-2.46-.88-4.92.19-7.35.46-3.27,4.48-4.35,4.77-7.72C-305.93,497.58-305.12,495.72-304.75,493.59Z" transform="translate(328.93 -487.58)"/><path class="cls-11" d="M-291.11,508.52c-1.54-.94-1-2.39-.9-3.72a1.86,1.86,0,0,1,1.07-.89c1.89-.31,3.13.74,4.25,2,.39.52.72,1.09,1.1,1.63.91.91,1.88.67,2.86.12,1.39-1.33,3.28-.18,4.78-1,3.54,1.76,2.73-3.11,5-3.27,3.17-2.86,3.6.69,4.22,2.14,1,2.32,1.32,4.93,1.92,7.42a22.57,22.57,0,0,1-8.07,1.68,11.47,11.47,0,0,0-4.17.16,3.05,3.05,0,0,0-3.72,1.23,4,4,0,0,1-4.7,1.51,5.3,5.3,0,0,0-2.37-4,3,3,0,0,1-.8-1C-291.33,511.29-289.15,509.67-291.11,508.52Z" transform="translate(328.93 -487.58)"/><path class="cls-12" d="M-308,542.59c-3.09-.15-5.06-1.4-4.77-4.87.71-3.48,2.71-6.32,4.5-9.28a2.94,2.94,0,0,1,1.89-.64,2.49,2.49,0,0,1,1.67.81c.28.29-.11.76.1.9s.5-.21.63-.53a5.89,5.89,0,0,1,2-1.37,2.87,2.87,0,0,1,3.08.42c1.51,1.31,3.83,1.72,4.46,4a3.84,3.84,0,0,1-2,3.52l0,0c-2.18.94-.87,3.05-1.51,4.51l0,0c.91,1.36.6,2.34-.91,3C-301.91,542.87-305,543.58-308,542.59Z" transform="translate(328.93 -487.58)"/><path class="cls-13" d="M-288,525.62c1.3-.27.65-2.94,2.61-2.25,1.42.51,3.77-.69,4.19,1.56s-1.54,2.47-3.25,2.73a9.21,9.21,0,0,0-2.24.94A2.21,2.21,0,0,1-288,525.62Z" transform="translate(328.93 -487.58)"/><path class="cls-14" d="M-288,525.62c.44,1,.87,2,1.31,3l-1,1.38a3.42,3.42,0,0,1-2-1.23c-1.29-1.72-1.09-3.48-.14-5.26.33-1.91-.05-4.08,2-5.37C-287.94,520.62-288,523.12-288,525.62Z" transform="translate(328.93 -487.58)"/><path class="cls-15" d="M-298,540c-2.52-2.52-1.25-3.76,1.51-4.51Q-297.21,537.78-298,540Z" transform="translate(328.93 -487.58)"/><path class="cls-16" d="M-298.86,542.71c1.29-.54.8-1.7.93-2.65,1.83.41,2.19,2.07,2.93,3.41l-4.12,0C-299.39,543.12-299.29,542.86-298.86,542.71Z" transform="translate(328.93 -487.58)"/><path class="cls-17" d="M-279,514.85c1.33-1.72,2.72-1.75,4.17-.16C-276.25,515.34-277.61,516.1-279,514.85Z" transform="translate(328.93 -487.58)"/><path class="cls-18" d="M-290.75,533.61c-.93,1-1.33.49-1.31-.53,0-1.23-.05-2.28-1.64-2.31-.17-.17-.34-.34-.5-.52a1.29,1.29,0,0,1,.64-1.17,2.86,2.86,0,0,1,2.15,0,2.9,2.9,0,0,1,1.32,3.22A6.27,6.27,0,0,1-290.75,533.61Z" transform="translate(328.93 -487.58)"/><path class="cls-19" d="M-290.75,533.61a5.38,5.38,0,0,1-.14-1c1.32-1,.19-3.54,2.42-4,.25.46.51.92.76,1.39C-288,531.76-288.45,533.48-290.75,533.61Z" transform="translate(328.93 -487.58)"/><path class="cls-18" d="M-296.48,535.56l1.41-3.94c-.28-.88.22-1.13,1-1.18l.4.33C-294.48,532.45-293.35,535.24-296.48,535.56Z" transform="translate(328.93 -487.58)"/><path class="cls-20" d="M-307.94,529.07c-1.24,3.1-2.11,6.41-4.88,8.65l-2.33,0c-2.42.7-5.05-1.82-7.49.78-.9.95-1.44-.8-1.82-1.6-1-2.07-1.9-4.17-2.84-6.25.91-1.22,2.19-1,3.44-.86a14.81,14.81,0,0,0,7.21-1c.5-.8,1.09-.66,1.71-.17,2.17.05,4.65.81,5.44-2.35C-307.35,526.27-307,527.31-307.94,529.07Z" transform="translate(328.93 -487.58)"/><path class="cls-21" d="M-307.94,529.07c-.09-1.19-.05-2.45-1.57-2.86a.57.57,0,0,1,.35-.69c.91-.35.53-1.52,1.25-2l1,.08c.81-.36,1.12.15,1.37.78,0,1.42.79,2.91-.38,4.23Z" transform="translate(328.93 -487.58)"/><path class="cls-22" d="M-323.86,529.76l-3.44.86-.72-3C-326.7,528.48-324.82,528.21-323.86,529.76Z" transform="translate(328.93 -487.58)"/><path class="cls-23" d="M-307.91,523.53c-.18.81.11,1.92-1.24,2,.5-2.53-2.62-3.26-2.74-5.48C-309.76,520.28-309.1,522.21-307.91,523.53Z" transform="translate(328.93 -487.58)"/><path class="cls-24" d="M-314.94,528.55l-1.71.17-4.29-.39C-318.88,527.67-316.82,526.86-314.94,528.55Z" transform="translate(328.93 -487.58)"/><path class="cls-25" d="M-312.78,506.33c-.06,2.45-.13,4.9-.19,7.35A6.06,6.06,0,0,1-312.78,506.33Z" transform="translate(328.93 -487.58)"/><path class="cls-9" d="M-287,506.82c-1.33-.6-1.85-2.47-3.65-2.36-1.64-.4-.61-2-1.34-2.87l-2.44-2a4.79,4.79,0,0,1-1.52-1.2c-1.09-1.21-3-.5-4.07-1.86l.07,0c.58-2,2.38-2.55,4.05-3.25s3.21.23,4.74.82a8.15,8.15,0,0,1,3.14,3.72c.11,2.41,1.56,3,3.66,2.7,1.11,3.82,4.74,3.15,7.42,4.16l-1.73,1.78c-1.53,1-3.42.46-5,1.22A4.69,4.69,0,0,1-287,506.82Z" transform="translate(328.93 -487.58)"/><path class="cls-26" d="M-276.9,504.75c-3.05-.34-6.9.73-7.42-4.16C-282.71,503.52-279.16,503-276.9,504.75Z" transform="translate(328.93 -487.58)"/><path class="cls-27" d="M-283.86,507.05l5.23-.52.68.19c-.52,2.38-3.13.13-4,1.79a.94.94,0,0,1-1.17.26A1.67,1.67,0,0,1-283.86,507.05Z" transform="translate(328.93 -487.58)"/><path class="cls-28" d="M-290.9,494.69l-5-1.34a2,2,0,0,1,.25-.79,7.18,7.18,0,0,1,4.63,1.05c.32.22.43.45.35.7S-290.81,494.69-290.9,494.69Z" transform="translate(328.93 -487.58)"/><path class="cls-29" d="M-290.9,494.69c0-.36-.05-.72-.08-1.08,1.78.88,3.1,2.08,3,4.28Z" transform="translate(328.93 -487.58)"/><path class="cls-30" d="M-298.86,542.71a2.43,2.43,0,0,1-.25.79l-6.83.28c-.79-.25-1.71-.24-2.11-1.19Z" transform="translate(328.93 -487.58)"/><path class="cls-31" d="M-299.86,528.7c-.62-1.22-1.35-.26-2-.12-1.37-1.46-2-3.52-3.58-4.79-.52-1.87-.49-3.51,1.76-4.23.81,5.06,6.29,2.23,8.45,5l.32-1.85c2-.94,1.95,1.35,3,1.87,0,.3,0,.6,0,.9a2.78,2.78,0,0,1-.74,1.08,10.57,10.57,0,0,1-5.31,2.48A3.11,3.11,0,0,1-299.86,528.7Z" transform="translate(328.93 -487.58)"/><path class="cls-32" d="M-292.92,525.58l1-.09,2-2c-.13,1.86,0,3.67,1.41,5.1-.37,1.61-.26,3.5-2.42,4-.07-1.17.26-2.48-1.15-3.16A3.49,3.49,0,0,1-292.92,525.58Z" transform="translate(328.93 -487.58)"/><path class="cls-33" d="M-289.94,512.79a1.25,1.25,0,0,1,.1.83c-2.37-.26-5.53.76-5.61-3.66l4.31.49C-290.13,510.92-290.61,512.15-289.94,512.79Z" transform="translate(328.93 -487.58)"/><path class="cls-34" d="M-303.72,519.56a6.88,6.88,0,0,0-1.19,5,.81.81,0,0,1-1.06-.07l-.91-.89a9.9,9.9,0,0,0-1-5.05,2.4,2.4,0,0,1,3.16,0Z" transform="translate(328.93 -487.58)"/><path class="cls-35" d="M-291.93,524.59c-1.5.18-1.94-1.36-3-1.87-.49-.43-1.07-1.16-.46-1.54a2.59,2.59,0,0,1,3.29.62C-291.64,522.39-292,523.64-291.93,524.59Z" transform="translate(328.93 -487.58)"/><path class="cls-36" d="M-304.72,518.53l-3.16,0c0-1.09-.59-2.89.55-3C-305.69,515.29-305,516.94-304.72,518.53Z" transform="translate(328.93 -487.58)"/><path class="cls-37" d="M-300,496.56c1.72,0,3.59-.66,4.93,1.07-.71,1.09-2.07.21-2.89,1C-299.42,498.71-300,497.9-300,496.56Z" transform="translate(328.93 -487.58)"/><path class="cls-38" d="M-291.95,501.59c1.15.63,1.24,1.76,1.34,2.87l-1.4.34C-293.22,503.71-292.57,502.65-291.95,501.59Z" transform="translate(328.93 -487.58)"/><path class="cls-39" d="M-297.94,498.59c.67-1.23,1.86-.85,2.89-1l.66,2Z" transform="translate(328.93 -487.58)"/><path class="cls-40" d="M-289.94,512.79a2.22,2.22,0,0,1-1.2-2.34l0-1.93C-287.62,509.09-290.9,511.52-289.94,512.79Z" transform="translate(328.93 -487.58)"/><path class="cls-41" d="M-283.86,507.05l.95,1.48a3.65,3.65,0,0,1-4,0l0-1.7Z" transform="translate(328.93 -487.58)"/><path class="cls-42" d="M-286.93,508.52h4a6.41,6.41,0,0,0,1,0C-283.6,510.1-285.26,510.09-286.93,508.52Z" transform="translate(328.93 -487.58)"/><path class="cls-43" d="M-306,524.5l1.06.07c3.43-.48,2.73,2.13,3,4l-2,1a.65.65,0,0,1-1,0l-1-1C-305.57,527.24-307.66,525.91-306,524.5Z" transform="translate(328.93 -487.58)"/><path class="cls-44" d="M-299.86,528.7l2-.33c1.57-.4,3.1-.68,3.94,1.24a3.85,3.85,0,0,1-.19.83l-1,1.19Z" transform="translate(328.93 -487.58)"/><path class="cls-45" d="M-304.93,529.58h1c0,.45,0,1-.68.83C-304.77,530.37-304.83,529.87-304.93,529.58Z" transform="translate(328.93 -487.58)"/><path class="cls-46" d="M-293.91,529.61l-3.94-1.24,4.93-2.79c.55,1.24,1.34,2.42.88,3.89Z" transform="translate(328.93 -487.58)"/></svg>